# xmcd
#
# Track frame offsets: 
#        150
#        10230
#        23539
#        33638
#        46855
#        59493
#        71162
#        83360
#        94033
#        106760
#        118142
#        129689
#        141898
#        151694
#        162334
#        173539
#        183587
#        193916
#        206088
#        217016
#        232994
#        245127
#        260878
#        270155
#        280277
#
# Disc length: 3929 seconds
#
# Revision: 0
# Processed by: cddbd v1.5.2PL0 Copyright (c) Steve Scherf et al.
# Submitted via: ExactAudioCopyFreeDBPlugin 1.0
#
DISCID=660f5719
DTITLE=Various Artist - Move On Up Volume Two - The Very Best Of Nort
DTITLE=hern Soul
DYEAR=1900
DGENRE=Northern Soul
TTITLE0=Judy Street - What
TTITLE1=Edwin Starr - Time
TTITLE2=Patti and The Emblems - I'm Gonna Love You A Long Time
TTITLE3=The Younghearts - A Little Togetherness
TTITLE4=Marvin Gaye - Can I Get A Witness
TTITLE5=The Valentinos - Sweeter Than The Day Before
TTITLE6=Garnet Mimms - As Long As I Have You
TTITLE7=Jackie Wilson - Whispers Getting Louder
TTITLE8=Kim Weston - Helpless
TTITLE9=The Ambers - Potion Of Love
TTITLE10=The Olympics - I'll Do A Little Bit More
TTITLE11=Sam Dees - Lonely For You, Baby
TTITLE12=The Vibrations - Cause You're Mine
TTITLE13=Bobby Paris - Night Owl
TTITLE14=Roy Redmond - Ain't That Terrible
TTITLE15=The Saphires - Gotta Have Your Love
TTITLE16=Roy Hamilton - Crackin' Up Over You
TTITLE17=The Checkerboard Squares - Double Cookin'
TTITLE18=The Marvelettes - I'll Keep Holding On
TTITLE19=Manny Corchado - Pow Wow
TTITLE20=The Flirtations - Nothing But A Heartache
TTITLE21=Jr. Walker and The All Stars - Tune Up
TTITLE22=Brenda Holloway - When I'm Gone
TTITLE23=Ann Sexton - You've Been Gone Too Long
TTITLE24=Don Thomas - Come On Train
EXTD=
EXTT0=
EXTT1=
EXTT2=
EXTT3=
EXTT4=
EXTT5=
EXTT6=
EXTT7=
EXTT8=
EXTT9=
EXTT10=
EXTT11=
EXTT12=
EXTT13=
EXTT14=
EXTT15=
EXTT16=
EXTT17=
EXTT18=
EXTT19=
EXTT20=
EXTT21=
EXTT22=
EXTT23=
EXTT24=
PLAYORDER=
